<?xml version="1.0" encoding="utf-8"?>
<!-- Generator: Adobe Illustrator 19.2.0, SVG Export Plug-In . SVG Version: 6.00 Build 0)  -->
<svg version="1.1" id="Layer_1" xmlns="http://www.w3.org/2000/svg" xmlns:xlink="http://www.w3.org/1999/xlink" x="0px" y="0px"
	 viewBox="0 0 470 175" style="enable-background:new 0 0 470 175;" xml:space="preserve">
<g>
	<g>
		<path d="M46.5,81.9c-0.9,0-1.5-0.2-1.9-0.6s-0.6-1.1-0.6-2.1c0-1,0.2-1.7,0.6-2.1s1-0.6,1.9-0.6H58c0.9,0,1.5,0.2,1.9,0.6
			c0.4,0.4,0.6,1.1,0.6,2.1c0,1-0.2,1.7-0.6,2.1c-0.4,0.4-1,0.6-1.9,0.6h-4.8l5.6,22.7l6.5-18.1c0.2-0.5,0.5-1,1-1.3s1.1-0.5,2-0.5
			c0.9,0,1.6,0.1,2,0.4c0.5,0.3,0.8,0.7,1,1.2l6.5,18.4l5.8-22.7h-3.9c-0.9,0-1.5-0.2-1.9-0.6c-0.4-0.4-0.6-1.1-0.6-2.1
			c0-1,0.2-1.7,0.6-2.1c0.4-0.4,1-0.6,1.9-0.6h10.7c0.9,0,1.5,0.2,1.9,0.6c0.4,0.4,0.6,1.1,0.6,2.1c0,1-0.2,1.7-0.6,2.1
			c-0.4,0.4-1,0.6-1.9,0.6h-0.9L81.7,111c-0.3,0.9-0.6,1.6-1.2,2s-1.3,0.6-2.2,0.6c-1.1,0-2-0.2-2.6-0.6c-0.6-0.4-1.1-1-1.4-1.9
			l-6-17l-6.1,17c-0.3,0.9-0.8,1.6-1.5,2s-1.6,0.6-2.7,0.6c-1,0-1.7-0.2-2.2-0.6c-0.5-0.4-0.9-1-1.1-2l-7.5-29.1H46.5z"/>
		<path d="M104.3,96.1c0.2,3.9,1.3,6.9,3.3,8.8c2,2,4.8,2.9,8.4,2.9c2.6,0,5.2-0.3,7.7-0.9c2.5-0.6,4.6-1.4,6.4-2.5
			c0.8-0.5,1.5-0.5,2.1-0.1c0.6,0.4,1,1,1.3,1.8c0.4,0.8,0.4,1.6,0.2,2.2c-0.2,0.7-0.7,1.2-1.6,1.7c-1,0.5-2.1,1-3.4,1.4
			c-1.2,0.4-2.6,0.8-3.9,1.1c-1.4,0.3-2.8,0.5-4.3,0.7c-1.5,0.2-3,0.3-4.5,0.3c-2.9,0-5.4-0.4-7.6-1.3c-2.2-0.9-4.1-2.1-5.6-3.8
			c-1.5-1.6-2.7-3.6-3.5-5.9c-0.8-2.3-1.2-5-1.2-7.9c0-2.8,0.5-5.4,1.4-7.8c0.9-2.3,2.2-4.3,3.8-6c1.6-1.7,3.6-2.9,5.9-3.8
			c2.3-0.9,4.8-1.3,7.5-1.3c2.9,0,5.4,0.4,7.7,1.3c2.2,0.9,4.1,2.1,5.6,3.7c1.5,1.6,2.7,3.5,3.5,5.7c0.8,2.2,1.3,4.6,1.5,7.2
			c0,0.9-0.2,1.5-0.6,1.9c-0.4,0.4-1,0.5-1.9,0.5H104.3z M116.8,81.4c-3.3,0-5.9,0.8-8,2.4c-2.1,1.6-3.4,3.9-4.1,6.8h23.9
			c-0.5-2.9-1.8-5.2-3.7-6.8C122.9,82.2,120.2,81.4,116.8,81.4z"/>
		<path d="M154.7,81.9h-5c-0.9,0-1.5-0.2-1.9-0.6c-0.4-0.4-0.6-1.1-0.6-2.1c0-1,0.2-1.7,0.6-2.1c0.4-0.4,1-0.6,1.9-0.6h8
			c0.9,0,1.5,0.2,1.9,0.6c0.4,0.4,0.6,1.1,0.6,2.1v7.9c1-1.7,2.1-3.3,3.3-4.7c1.2-1.4,2.6-2.6,4-3.6c1.4-1,2.9-1.8,4.4-2.3
			c1.5-0.5,3-0.8,4.5-0.8c2,0,3.9,0.5,5.7,1.6c0.8,0.4,1.2,1,1.4,1.6c0.2,0.7,0.1,1.5-0.2,2.4c-0.4,0.9-0.8,1.6-1.4,2
			c-0.6,0.4-1.2,0.4-2-0.1c-1.3-0.7-2.7-1.1-4.1-1.1c-1.2,0-2.4,0.2-3.6,0.6s-2.4,1-3.5,1.8c-1.1,0.8-2.2,1.7-3.2,2.8
			c-1,1.1-1.8,2.3-2.6,3.6c-0.7,1.3-1.3,2.7-1.7,4.2c-0.4,1.5-0.6,3-0.6,4.6v7.6h13.2c0.9,0,1.5,0.2,1.9,0.6
			c0.4,0.4,0.6,1.1,0.6,2.1c0,1-0.2,1.7-0.6,2.1c-0.4,0.4-1,0.6-1.9,0.6h-25.2c-0.9,0-1.5-0.2-1.9-0.6c-0.4-0.4-0.6-1.1-0.6-2.1
			c0-1,0.2-1.7,0.6-2.1c0.4-0.4,1-0.6,1.9-0.6h6.1V81.9z"/>
		<path d="M231.7,107.4c0.9,0,1.5,0.2,1.9,0.6c0.4,0.4,0.6,1.1,0.6,2.1c0,1-0.2,1.7-0.6,2.1c-0.4,0.4-1,0.6-1.9,0.6h-6.2
			c-0.9,0-1.5-0.2-1.9-0.6c-0.4-0.4-0.6-1.1-0.6-2.1v-3.1c-1.6,2.1-3.5,3.7-5.6,4.9s-4.5,1.7-7.1,1.7c-2.4,0-4.7-0.4-6.7-1.2
			c-2.1-0.8-3.8-2-5.3-3.5c-1.5-1.5-2.7-3.4-3.5-5.6c-0.9-2.2-1.3-4.7-1.3-7.5s0.4-5.3,1.3-7.5c0.9-2.2,2-4.1,3.5-5.6
			c1.5-1.5,3.3-2.7,5.3-3.5c2.1-0.8,4.3-1.2,6.7-1.2c2.6,0,4.9,0.5,7,1.6c2,1.1,3.8,2.6,5.4,4.5v-17h-7.9c-0.9,0-1.5-0.2-1.9-0.6
			c-0.4-0.4-0.6-1.1-0.6-2.1c0-1,0.2-1.7,0.6-2.1c0.4-0.4,1-0.6,1.9-0.6H226c0.9,0,1.5,0.2,1.9,0.6c0.4,0.4,0.6,1.1,0.6,2.1v43.3
			H231.7z M222.6,95.6c0-1.9-0.3-3.6-0.9-5.2c-0.6-1.5-1.4-2.8-2.5-3.8c-1.1-1-2.3-1.8-3.8-2.4c-1.5-0.5-3.1-0.8-4.8-0.8
			c-1.8,0-3.3,0.3-4.7,0.9c-1.4,0.6-2.5,1.4-3.5,2.5c-0.9,1.1-1.7,2.4-2.1,3.8c-0.5,1.5-0.7,3.1-0.7,4.9c0,1.8,0.2,3.4,0.7,4.9
			c0.5,1.5,1.2,2.8,2.1,3.8c0.9,1.1,2.1,1.9,3.5,2.5c1.4,0.6,3,0.9,4.7,0.9c1.7,0,3.3-0.3,4.8-0.8c1.5-0.5,2.7-1.3,3.8-2.4
			c1.1-1,1.9-2.3,2.5-3.8C222.3,99.3,222.6,97.6,222.6,95.6z"/>
		<path d="M271.5,107.4v-6.7c0-0.9,0.2-1.6,0.6-2s1.2-0.6,2.3-0.6s1.9,0.2,2.3,0.6s0.6,1,0.6,2v9.4c0,1-0.2,1.7-0.6,2.1
			c-0.4,0.4-1,0.6-1.9,0.6h-29.1c-0.9,0-1.5-0.2-1.9-0.6c-0.4-0.4-0.6-1.1-0.6-2.1c0-0.8,0.2-1.4,0.5-1.8l23.9-26.4h-17.8v5.8
			c0,0.9-0.2,1.6-0.6,2s-1.2,0.6-2.3,0.6s-1.9-0.2-2.3-0.6s-0.6-1-0.6-2v-8.5c0-1,0.2-1.7,0.6-2.1c0.4-0.4,1-0.6,1.9-0.6h28
			c0.9,0,1.5,0.2,1.9,0.6c0.4,0.4,0.6,1.1,0.6,2.1c0,0.8-0.2,1.4-0.6,1.8l-23.8,26.3H271.5z"/>
		<path d="M327.1,107.4c0.9,0,1.5,0.2,1.9,0.6c0.4,0.4,0.6,1.1,0.6,2.1c0,1-0.2,1.7-0.6,2.1c-0.4,0.4-1,0.6-1.9,0.6h-2.5
			c-0.8,0-1.6-0.1-2.3-0.3c-0.7-0.2-1.4-0.5-2-0.9c-0.6-0.4-1.1-0.9-1.5-1.6s-0.7-1.4-0.9-2.2c-2.1,1.8-4.3,3.2-6.8,4.3
			c-2.5,1.1-5.2,1.6-8,1.6c-2,0-3.8-0.3-5.4-0.8s-3.1-1.2-4.3-2.2c-1.2-1-2.1-2.2-2.8-3.6s-1-3-1-4.8c0-2.2,0.4-4,1.3-5.6
			c0.8-1.5,2-2.8,3.4-3.7c1.4-1,3.1-1.6,5-2.1c1.9-0.4,3.9-0.7,6.1-0.7c2.1,0,4.2,0.2,6.1,0.5c2,0.3,3.9,0.8,5.7,1.5v-3.3
			c0-2.5-0.6-4.4-1.8-5.6c-1.2-1.2-3.3-1.8-6.2-1.8c-2.1,0-4.2,0.3-6.3,0.8c-2.1,0.6-4,1.4-5.6,2.6c-0.6,0.4-1.2,0.6-1.8,0.5
			c-0.6-0.1-1.2-0.6-1.8-1.4c-0.6-0.8-0.8-1.5-0.7-2.2c0.1-0.6,0.5-1.2,1.1-1.6c1-0.8,2.1-1.4,3.4-2c1.2-0.6,2.5-1,3.8-1.4
			c1.3-0.4,2.7-0.6,4-0.8c1.4-0.2,2.7-0.3,4-0.3c4.7,0,8.1,1.1,10.4,3.3s3.5,5.4,3.5,9.7v15.5c0,2.1,0.9,3.1,2.6,3.1H327.1z
			 M317.3,97.3c-1.8-0.6-3.7-1-5.7-1.3c-2-0.3-4.1-0.4-6.1-0.4c-1.4,0-2.7,0.1-3.9,0.4c-1.2,0.2-2.2,0.6-3.1,1.1s-1.5,1.2-2,2
			c-0.5,0.8-0.7,1.8-0.7,3c0,1.9,0.7,3.4,2,4.4c1.3,1.1,3.2,1.6,5.5,1.6c2.8,0,5.3-0.6,7.7-1.7c2.3-1.2,4.4-2.7,6.4-4.7V97.3z"/>
		<path d="M341.3,66.8h-3.6c-0.9,0-1.5-0.2-1.9-0.6c-0.4-0.4-0.6-1.1-0.6-2.1c0-1,0.2-1.7,0.6-2.1c0.4-0.4,1-0.6,1.9-0.6h7
			c0.9,0,1.5,0.2,1.9,0.6c0.4,0.4,0.6,1.1,0.6,2.1v19.5c1.7-2.5,3.6-4.5,5.9-5.8c2.2-1.3,4.6-2,7.2-2c1.8,0,3.4,0.3,4.8,0.9
			c1.4,0.6,2.6,1.4,3.7,2.5c1,1.1,1.8,2.4,2.3,4c0.5,1.6,0.8,3.3,0.8,5.3v18.9h3.2c0.9,0,1.5,0.2,1.9,0.6c0.4,0.4,0.6,1.1,0.6,2.1
			c0,1-0.2,1.7-0.6,2.1c-0.4,0.4-1,0.6-1.9,0.6h-12.7c-0.9,0-1.5-0.2-1.9-0.6c-0.4-0.4-0.6-1.1-0.6-2.1c0-1,0.2-1.7,0.6-2.1
			c0.4-0.4,1-0.6,1.9-0.6h3.6V89.1c0-1.1-0.1-2.1-0.4-3.1c-0.3-0.9-0.7-1.7-1.2-2.4c-0.5-0.7-1.2-1.2-2-1.5
			c-0.8-0.4-1.7-0.5-2.8-0.5c-1.7,0-3.3,0.4-4.8,1.1c-1.5,0.7-2.8,1.7-4,3c-1.1,1.3-2.1,2.9-2.7,4.6c-0.7,1.8-1,3.8-1,5.9v11.2h3.6
			c0.9,0,1.5,0.2,1.9,0.6c0.4,0.4,0.6,1.1,0.6,2.1c0,1-0.2,1.7-0.6,2.1c-0.4,0.4-1,0.6-1.9,0.6h-12.7c-0.9,0-1.5-0.2-1.9-0.6
			c-0.4-0.4-0.6-1.1-0.6-2.1c0-1,0.2-1.7,0.6-2.1c0.4-0.4,1-0.6,1.9-0.6h3.2V66.8z"/>
		<path d="M389.7,81.9h-4c-0.9,0-1.5-0.2-1.9-0.6c-0.4-0.4-0.6-1.1-0.6-2.1c0-1,0.2-1.7,0.6-2.1c0.4-0.4,1-0.6,1.9-0.6h7
			c0.9,0,1.5,0.2,1.9,0.6c0.4,0.4,0.6,1.1,0.6,2.1v4.7c1.7-2.7,3.7-4.7,6-6.1c2.3-1.4,4.8-2.1,7.5-2.1c1.8,0,3.4,0.3,4.8,0.9
			c1.4,0.6,2.6,1.4,3.7,2.5c1,1.1,1.8,2.4,2.3,4c0.5,1.6,0.8,3.3,0.8,5.3v18.9h3.2c0.9,0,1.5,0.2,1.9,0.6c0.4,0.4,0.6,1.1,0.6,2.1
			c0,1-0.2,1.7-0.6,2.1c-0.4,0.4-1,0.6-1.9,0.6h-12.7c-0.9,0-1.5-0.2-1.9-0.6c-0.4-0.4-0.6-1.1-0.6-2.1c0-1,0.2-1.7,0.6-2.1
			c0.4-0.4,1-0.6,1.9-0.6h3.6V89.1c0-1.1-0.1-2.1-0.4-3.1c-0.3-0.9-0.7-1.7-1.2-2.4c-0.5-0.7-1.2-1.2-2-1.5
			c-0.8-0.4-1.7-0.5-2.8-0.5c-1.7,0-3.3,0.4-4.8,1.1c-1.5,0.7-2.8,1.7-4,3c-1.1,1.3-2.1,2.9-2.7,4.6c-0.7,1.8-1,3.8-1,5.9v11.2h3.6
			c0.9,0,1.5,0.2,1.9,0.6c0.4,0.4,0.6,1.1,0.6,2.1c0,1-0.2,1.7-0.6,2.1c-0.4,0.4-1,0.6-1.9,0.6h-12.7c-0.9,0-1.5-0.2-1.9-0.6
			c-0.4-0.4-0.6-1.1-0.6-2.1c0-1,0.2-1.7,0.6-2.1c0.4-0.4,1-0.6,1.9-0.6h3.2V81.9z"/>
	</g>
</g>
</svg>
