<svg id="Layer_1" data-name="Layer 1" xmlns="http://www.w3.org/2000/svg" viewBox="0 0 384.94 95.33"><defs><style>.cls-1{fill:#231f20;}</style></defs><title>werdzahn-logo-2017-outlines</title><path d="M45,71.43a2.56,2.56,0,0,1-1.89-.59,4.07,4.07,0,0,1,0-4.14A2.56,2.56,0,0,1,45,66.11H56.48a2.56,2.56,0,0,1,1.89.59,4.07,4.07,0,0,1,0,4.14,2.56,2.56,0,0,1-1.89.59h-4.8L57.3,94.16,63.82,76a2.75,2.75,0,0,1,1-1.31,3.27,3.27,0,0,1,2-.53,4.27,4.27,0,0,1,2,.39,2.08,2.08,0,0,1,1,1.17l6.48,18.4,5.78-22.73H78.12a2.56,2.56,0,0,1-1.89-.59,4.07,4.07,0,0,1,0-4.14,2.56,2.56,0,0,1,1.89-.59h10.7a2.56,2.56,0,0,1,1.89.59,4.07,4.07,0,0,1,0,4.14,2.56,2.56,0,0,1-1.89.59H87.88l-7.7,29.1a3.55,3.55,0,0,1-1.15,2,3.74,3.74,0,0,1-2.25.57,4.91,4.91,0,0,1-2.64-.61,3.6,3.6,0,0,1-1.43-1.93l-6-17-6.05,17a3.44,3.44,0,0,1-1.46,2,5.26,5.26,0,0,1-2.68.59,2.9,2.9,0,0,1-3.32-2.54L45.7,71.43H45Z" transform="translate(-42.53 -39.84)"/><path d="M102.77,85.61q0.31,5.9,3.26,8.85t8.42,2.95a32.39,32.39,0,0,0,7.66-.9A24,24,0,0,0,128.51,94a1.87,1.87,0,0,1,2.09-.12,4,4,0,0,1,1.35,1.84,3.17,3.17,0,0,1,.23,2.25,2.94,2.94,0,0,1-1.6,1.66A28.36,28.36,0,0,1,127.2,101a36,36,0,0,1-3.95,1.07q-2.09.45-4.32,0.7a39.7,39.7,0,0,1-4.49.25,20.66,20.66,0,0,1-7.62-1.31A15,15,0,0,1,101.24,98a16.33,16.33,0,0,1-3.46-5.94,24.42,24.42,0,0,1-1.19-7.91A20.86,20.86,0,0,1,98,76.41a17.56,17.56,0,0,1,3.85-6,16.9,16.9,0,0,1,5.88-3.83,22,22,0,0,1,15.18,0,16,16,0,0,1,5.61,3.73A16.64,16.64,0,0,1,132,76a24.16,24.16,0,0,1,1.48,7.19,2.54,2.54,0,0,1-.57,1.88,2.68,2.68,0,0,1-1.89.55H102.77Zm12.46-14.69a12.54,12.54,0,0,0-8,2.44,11.51,11.51,0,0,0-4.08,6.78H127a11.16,11.16,0,0,0-3.71-6.82Q120.42,70.92,115.23,70.92Z" transform="translate(-42.53 -39.84)"/><path d="M153.2,71.43h-5a2.56,2.56,0,0,1-1.89-.59,4.07,4.07,0,0,1,0-4.14,2.56,2.56,0,0,1,1.89-.59h8a2.56,2.56,0,0,1,1.89.59,3,3,0,0,1,.57,2.07v7.89a26.55,26.55,0,0,1,3.3-4.73,22.67,22.67,0,0,1,4-3.59,18.06,18.06,0,0,1,4.38-2.29,13.43,13.43,0,0,1,4.49-.8,11.07,11.07,0,0,1,5.7,1.56,3,3,0,0,1,1.45,1.64,3.71,3.71,0,0,1-.23,2.42,4.21,4.21,0,0,1-1.39,2,1.72,1.72,0,0,1-2-.08,8.52,8.52,0,0,0-4.1-1.05,10.64,10.64,0,0,0-3.57.64,15.5,15.5,0,0,0-3.52,1.8A17.56,17.56,0,0,0,164,77a20.34,20.34,0,0,0-2.58,3.57,18.48,18.48,0,0,0-1.74,4.18,17,17,0,0,0-.62,4.61V96.9h13.16a2.56,2.56,0,0,1,1.89.59,4.07,4.07,0,0,1,0,4.14,2.56,2.56,0,0,1-1.89.59H147.06a2.56,2.56,0,0,1-1.89-.59,4.07,4.07,0,0,1,0-4.14,2.56,2.56,0,0,1,1.89-.59h6.13V71.43Z" transform="translate(-42.53 -39.84)"/><path d="M230.11,96.9a2.56,2.56,0,0,1,1.89.59,4.07,4.07,0,0,1,0,4.14,2.56,2.56,0,0,1-1.89.59H223.9a2.56,2.56,0,0,1-1.89-.59,3,3,0,0,1-.57-2.07V96.43a17.64,17.64,0,0,1-5.64,4.9,14.78,14.78,0,0,1-7.13,1.74,18,18,0,0,1-6.72-1.23,15.21,15.21,0,0,1-5.33-3.54,16.48,16.48,0,0,1-3.54-5.62,22.69,22.69,0,0,1,0-15.08A16.5,16.5,0,0,1,196.61,72a15.22,15.22,0,0,1,5.33-3.54,18,18,0,0,1,6.72-1.23,15,15,0,0,1,7,1.58A16.75,16.75,0,0,1,221,73.3v-17h-7.89a2.56,2.56,0,0,1-1.89-.59,3,3,0,0,1-.57-2.07,3,3,0,0,1,.57-2.07,2.56,2.56,0,0,1,1.89-.59h11.29a2.56,2.56,0,0,1,1.89.59,3,3,0,0,1,.57,2.07V96.9h3.2ZM221,85.14a13.91,13.91,0,0,0-.9-5.16,10.68,10.68,0,0,0-2.5-3.81,10.89,10.89,0,0,0-3.81-2.36,13.63,13.63,0,0,0-4.79-.82,11.77,11.77,0,0,0-4.73.9,9.59,9.59,0,0,0-3.48,2.52,11.19,11.19,0,0,0-2.15,3.85,16.43,16.43,0,0,0,0,9.77,11.18,11.18,0,0,0,2.15,3.85,9.56,9.56,0,0,0,3.48,2.52,11.76,11.76,0,0,0,4.73.9,13.63,13.63,0,0,0,4.79-.82,10.88,10.88,0,0,0,3.81-2.36,10.67,10.67,0,0,0,2.5-3.81A13.9,13.9,0,0,0,221,85.14Z" transform="translate(-42.53 -39.84)"/><path d="M270,96.9V90.18a2.54,2.54,0,0,1,.64-2,4.75,4.75,0,0,1,4.57,0,2.54,2.54,0,0,1,.64,2v9.38a3,3,0,0,1-.57,2.07,2.56,2.56,0,0,1-1.89.59H244.21a2.56,2.56,0,0,1-1.89-.59,3,3,0,0,1-.57-2.07,2.49,2.49,0,0,1,.55-1.76l23.87-26.37H248.39v5.82a2.54,2.54,0,0,1-.64,2,4.75,4.75,0,0,1-4.57,0,2.54,2.54,0,0,1-.64-2V68.77a3,3,0,0,1,.57-2.07,2.56,2.56,0,0,1,1.89-.59h28a2.56,2.56,0,0,1,1.89.59,3,3,0,0,1,.57,2.07,2.62,2.62,0,0,1-.59,1.8L251,96.9H270Z" transform="translate(-42.53 -39.84)"/><path d="M325.54,96.9a2.56,2.56,0,0,1,1.89.59,4.07,4.07,0,0,1,0,4.14,2.56,2.56,0,0,1-1.89.59H323a8.87,8.87,0,0,1-2.3-.29,6.08,6.08,0,0,1-2-.92,6.21,6.21,0,0,1-1.52-1.56,6.12,6.12,0,0,1-.92-2.23,25.46,25.46,0,0,1-6.8,4.28,20.31,20.31,0,0,1-8,1.58,18.16,18.16,0,0,1-5.39-.76,12.5,12.5,0,0,1-4.26-2.23A10.13,10.13,0,0,1,289,96.51a11.22,11.22,0,0,1-1-4.84,11.42,11.42,0,0,1,1.27-5.59,10.4,10.4,0,0,1,3.44-3.73,15.42,15.42,0,0,1,5-2.09,26.91,26.91,0,0,1,6.07-.66,36.39,36.39,0,0,1,6.13.51,35.18,35.18,0,0,1,5.74,1.48V78.26q0-3.79-1.82-5.57t-6.23-1.78a24.81,24.81,0,0,0-6.35.84,17.13,17.13,0,0,0-5.64,2.6,2.23,2.23,0,0,1-1.84.47,3.13,3.13,0,0,1-1.8-1.41,2.91,2.91,0,0,1-.68-2.17,2.57,2.57,0,0,1,1.07-1.62,18.55,18.55,0,0,1,3.36-2,24.11,24.11,0,0,1,3.81-1.37,29.76,29.76,0,0,1,4-.78,33,33,0,0,1,4-.25q7,0,10.45,3.28t3.46,9.73V93.81q0,3.09,2.58,3.09h1.37Zm-9.8-10A32.55,32.55,0,0,0,310,85.53a43.64,43.64,0,0,0-6.09-.43,20.05,20.05,0,0,0-3.89.35,9.68,9.68,0,0,0-3.07,1.11,5.57,5.57,0,0,0-2,2,5.8,5.8,0,0,0-.72,3,5.36,5.36,0,0,0,2,4.43,8.62,8.62,0,0,0,5.53,1.58,16.88,16.88,0,0,0,7.66-1.74,23.59,23.59,0,0,0,6.37-4.71V86.86Z" transform="translate(-42.53 -39.84)"/><path d="M339.8,56.27H336.2a2.56,2.56,0,0,1-1.89-.59,3,3,0,0,1-.57-2.07,3,3,0,0,1,.57-2.07A2.56,2.56,0,0,1,336.2,51h7a2.56,2.56,0,0,1,1.89.59,3,3,0,0,1,.57,2.07V73.07a18.93,18.93,0,0,1,5.86-5.8,13.69,13.69,0,0,1,7.23-2,12.46,12.46,0,0,1,4.84.9,10.27,10.27,0,0,1,3.65,2.54,11.15,11.15,0,0,1,2.3,4,16.45,16.45,0,0,1,.8,5.29V96.9h3.2a2.56,2.56,0,0,1,1.89.59,4.07,4.07,0,0,1,0,4.14,2.56,2.56,0,0,1-1.89.59H360.89a2.56,2.56,0,0,1-1.89-.59,4.07,4.07,0,0,1,0-4.14,2.56,2.56,0,0,1,1.89-.59h3.59V78.58a11.32,11.32,0,0,0-.39-3.07,6.85,6.85,0,0,0-1.17-2.38,5.27,5.27,0,0,0-2-1.54,6.65,6.65,0,0,0-2.79-.55,10.83,10.83,0,0,0-4.77,1.09,12.5,12.5,0,0,0-4,3,14.89,14.89,0,0,0-2.73,4.65,16.59,16.59,0,0,0-1,5.9V96.9h3.59a2.56,2.56,0,0,1,1.89.59,4.07,4.07,0,0,1,0,4.14,2.56,2.56,0,0,1-1.89.59H336.6a2.56,2.56,0,0,1-1.89-.59,4.07,4.07,0,0,1,0-4.14,2.56,2.56,0,0,1,1.89-.59h3.2V56.27Z" transform="translate(-42.53 -39.84)"/><path d="M388.16,71.43h-4a2.56,2.56,0,0,1-1.89-.59,4.07,4.07,0,0,1,0-4.14,2.56,2.56,0,0,1,1.89-.59h7a2.56,2.56,0,0,1,1.89.59,3,3,0,0,1,.57,2.07v4.69a18.9,18.9,0,0,1,6-6.11,14.1,14.1,0,0,1,7.46-2.09,12.46,12.46,0,0,1,4.84.9,10.26,10.26,0,0,1,3.65,2.54,11.13,11.13,0,0,1,2.3,4,16.45,16.45,0,0,1,.8,5.29V96.9h3.2a2.56,2.56,0,0,1,1.89.59,4.07,4.07,0,0,1,0,4.14,2.56,2.56,0,0,1-1.89.59H409.25a2.56,2.56,0,0,1-1.89-.59,4.07,4.07,0,0,1,0-4.14,2.56,2.56,0,0,1,1.89-.59h3.59V78.58a11.32,11.32,0,0,0-.39-3.07,6.82,6.82,0,0,0-1.17-2.38,5.26,5.26,0,0,0-2-1.54,6.65,6.65,0,0,0-2.79-.55,10.83,10.83,0,0,0-4.77,1.09,12.52,12.52,0,0,0-4,3A14.91,14.91,0,0,0,395,79.83a16.59,16.59,0,0,0-1,5.9V96.9h3.59a2.56,2.56,0,0,1,1.89.59,4.07,4.07,0,0,1,0,4.14,2.56,2.56,0,0,1-1.89.59H385a2.56,2.56,0,0,1-1.89-.59,4.07,4.07,0,0,1,0-4.14A2.56,2.56,0,0,1,385,96.9h3.2V71.43Z" transform="translate(-42.53 -39.84)"/><rect class="cls-1" x="382.94" width="2" height="95.33"/></svg>